# xmcd
#
# Track frame offsets:
#	182
#	13460
#	25237
#	38755
#	51680
#	63665
#	76260
#	89917
#	102070
#	115632
#	128157
#	140980
#	153535
#	166847
#
# Disc length: 2385 seconds
#
# Revision: 0
# Processed by: cddbd v1.5.1PL0 Copyright (c) Steve Scherf et al.
# Submitted via: dBpowerAMP V4.0
#
DISCID=c6094f0e
DTITLE=Varius - Motown Sound
DYEAR=1900
DGENRE=Black&Soul
TTITLE0=Marvin Gaye-I heard  it thought the grapevine
TTITLE1=Temptations-GET READY
TTITLE2=Martha-nowere to run
TTITLE3=Miracles-Shop around
TTITLE4=Diana Ross- Love is like a heatwave
TTITLE5=Four taps-It's the same old song
TTITLE6=Jr. Walker-Shotgun
TTITLE7=Martha-Dancing in the street
TTITLE8=Smokey Robinson-You really got a hold on me
TTITLE9=Marvin Gaye-Stubborn kind of fellow
TTITLE10=Mary Wells-My guy
TTITLE11=Four taps-I can't help myself
TTITLE12=Marvin Gaye-Too busy thinking about my baby
TTITLE13=Diana Ross-Come se about me
EXTD=
EXTT0=
EXTT1=
EXTT2=
EXTT3=
EXTT4=
EXTT5=
EXTT6=
EXTT7=
EXTT8=
EXTT9=
EXTT10=
EXTT11=
EXTT12=
EXTT13=
PLAYORDER=
